TITLE ""
FILE "1Q_t_1488-1500.mp3" MP3
  TRACK 01 AUDIO
    TITLE "1Q_t_1488-1500_01"
    INDEX 01 00:00:00
  TRACK 02 AUDIO
    TITLE "1Q_t_1488-1500_02"
    INDEX 01 00:01:12
  TRACK 03 AUDIO
    TITLE "1Q_t_1488-1500_03"
    INDEX 01 00:01:22
  TRACK 04 AUDIO
    TITLE "1Q_t_1488-1500_04"
    INDEX 01 00:03:58
  TRACK 05 AUDIO
    TITLE "1Q_t_1488-1500_05"
    INDEX 01 00:03:63
  TRACK 06 AUDIO
    TITLE "1Q_t_1488-1500_06"
    INDEX 01 00:08:45
  TRACK 07 AUDIO
    TITLE "1Q_t_1488-1500_07"
    INDEX 01 00:09:25
  TRACK 08 AUDIO
    TITLE "1Q_t_1488-1500_08"
    INDEX 01 00:10:26
  TRACK 09 AUDIO
    TITLE "1Q_t_1488-1500_09"
    INDEX 01 00:10:32
  TRACK 10 AUDIO
    TITLE "1Q_t_1488-1500_10"
    INDEX 01 00:12:49
  TRACK 11 AUDIO
    TITLE "1Q_t_1488-1500_11"
    INDEX 01 00:12:55
  TRACK 12 AUDIO
    TITLE "1Q_t_1488-1500_12"
    INDEX 01 00:17:71
  TRACK 13 AUDIO
    TITLE "1Q_t_1488-1500_13"
    INDEX 01 00:18:42
  TRACK 14 AUDIO
    TITLE "1Q_t_1488-1500_14"
    INDEX 01 00:19:70
  TRACK 15 AUDIO
    TITLE "1Q_t_1488-1500_15"
    INDEX 01 00:20:03
  TRACK 16 AUDIO
    TITLE "1Q_t_1488-1500_16"
    INDEX 01 00:22:59
  TRACK 17 AUDIO
    TITLE "1Q_t_1488-1500_17"
    INDEX 01 00:22:67
  TRACK 18 AUDIO
    TITLE "1Q_t_1488-1500_18"
    INDEX 01 00:26:72
  TRACK 19 AUDIO
    TITLE "1Q_t_1488-1500_19"
    INDEX 01 00:27:42
  TRACK 20 AUDIO
    TITLE "1Q_t_1488-1500_20"
    INDEX 01 00:28:63
  TRACK 21 AUDIO
    TITLE "1Q_t_1488-1500_21"
    INDEX 01 00:28:71
  TRACK 22 AUDIO
    TITLE "1Q_t_1488-1500_22"
    INDEX 01 00:31:48
  TRACK 23 AUDIO
    TITLE "1Q_t_1488-1500_23"
    INDEX 01 00:31:56
  TRACK 24 AUDIO
    TITLE "1Q_t_1488-1500_24"
    INDEX 01 00:35:50
  TRACK 25 AUDIO
    TITLE "1Q_t_1488-1500_25"
    INDEX 01 00:36:22
  TRACK 26 AUDIO
    TITLE "1Q_t_1488-1500_26"
    INDEX 01 00:37:35
  TRACK 27 AUDIO
    TITLE "1Q_t_1488-1500_27"
    INDEX 01 00:37:43
  TRACK 28 AUDIO
    TITLE "1Q_t_1488-1500_28"
    INDEX 01 00:40:37
  TRACK 29 AUDIO
    TITLE "1Q_t_1488-1500_29"
    INDEX 01 00:40:43
  TRACK 30 AUDIO
    TITLE "1Q_t_1488-1500_30"
    INDEX 01 00:44:62
  TRACK 31 AUDIO
    TITLE "1Q_t_1488-1500_31"
    INDEX 01 00:45:36
  TRACK 32 AUDIO
    TITLE "1Q_t_1488-1500_32"
    INDEX 01 00:46:32
  TRACK 33 AUDIO
    TITLE "1Q_t_1488-1500_33"
    INDEX 01 00:46:42
  TRACK 34 AUDIO
    TITLE "1Q_t_1488-1500_34"
    INDEX 01 00:47:57
  TRACK 35 AUDIO
    TITLE "1Q_t_1488-1500_35"
    INDEX 01 00:47:63
  TRACK 36 AUDIO
    TITLE "1Q_t_1488-1500_36"
    INDEX 01 00:53:14
  TRACK 37 AUDIO
    TITLE "1Q_t_1488-1500_37"
    INDEX 01 00:53:59
  TRACK 38 AUDIO
    TITLE "1Q_t_1488-1500_38"
    INDEX 01 00:55:05
  TRACK 39 AUDIO
    TITLE "1Q_t_1488-1500_39"
    INDEX 01 00:55:15
  TRACK 40 AUDIO
    TITLE "1Q_t_1488-1500_40"
    INDEX 01 00:59:27
  TRACK 41 AUDIO
    TITLE "1Q_t_1488-1500_41"
    INDEX 01 00:59:35
  TRACK 42 AUDIO
    TITLE "1Q_t_1488-1500_42"
    INDEX 01 01:05:22
  TRACK 43 AUDIO
    TITLE "1Q_t_1488-1500_43"
    INDEX 01 01:05:69
  TRACK 44 AUDIO
    TITLE "1Q_t_1488-1500_44"
    INDEX 01 01:07:07
  TRACK 45 AUDIO
    TITLE "1Q_t_1488-1500_45"
    INDEX 01 01:07:15
  TRACK 46 AUDIO
    TITLE "1Q_t_1488-1500_46"
    INDEX 01 01:09:15
  TRACK 47 AUDIO
    TITLE "1Q_t_1488-1500_47"
    INDEX 01 01:09:21
  TRACK 48 AUDIO
    TITLE "1Q_t_1488-1500_48"
    INDEX 01 01:14:03
  TRACK 49 AUDIO
    TITLE "1Q_t_1488-1500_49"
    INDEX 01 01:14:50
  TRACK 50 AUDIO
    TITLE "1Q_t_1488-1500_50"
    INDEX 01 01:15:69
  TRACK 51 AUDIO
    TITLE "1Q_t_1488-1500_51"
    INDEX 01 01:15:75
  TRACK 52 AUDIO
    TITLE "1Q_t_1488-1500_52"
    INDEX 01 01:18:50
  TRACK 53 AUDIO
    TITLE "1Q_t_1488-1500_53"
    INDEX 01 01:18:55
  TRACK 54 AUDIO
    TITLE "1Q_t_1488-1500_54"
    INDEX 01 01:23:21
  TRACK 55 AUDIO
    TITLE "1Q_t_1488-1500_55"
    INDEX 01 01:23:64
  TRACK 56 AUDIO
    TITLE "1Q_t_1488-1500_56"
    INDEX 01 01:25:01
  TRACK 57 AUDIO
    TITLE "1Q_t_1488-1500_57"
    INDEX 01 01:25:10
  TRACK 58 AUDIO
    TITLE "1Q_t_1488-1500_58"
    INDEX 01 01:26:63
  TRACK 59 AUDIO
    TITLE "1Q_t_1488-1500_59"
    INDEX 01 01:26:69
  TRACK 60 AUDIO
    TITLE "1Q_t_1488-1500_60"
    INDEX 01 01:31:60
  TRACK 61 AUDIO
    TITLE "1Q_t_1488-1500_61"
    INDEX 01 01:32:34
  TRACK 62 AUDIO
    TITLE "1Q_t_1488-1500_62"
    INDEX 01 01:33:39
  TRACK 63 AUDIO
    TITLE "1Q_t_1488-1500_63"
    INDEX 01 01:33:47
  TRACK 64 AUDIO
    TITLE "1Q_t_1488-1500_64"
    INDEX 01 01:36:28
  TRACK 65 AUDIO
    TITLE "1Q_t_1488-1500_65"
    INDEX 01 01:36:36
  TRACK 66 AUDIO
    TITLE "1Q_t_1488-1500_66"
    INDEX 01 01:40:30
  TRACK 67 AUDIO
    TITLE "1Q_t_1488-1500_67"
    INDEX 01 01:40:75
  TRACK 68 AUDIO
    TITLE "1Q_t_1488-1500_68"
    INDEX 01 01:42:09
  TRACK 69 AUDIO
    TITLE "1Q_t_1488-1500_69"
    INDEX 01 01:42:17
  TRACK 70 AUDIO
    TITLE "1Q_t_1488-1500_70"
    INDEX 01 01:46:05
  TRACK 71 AUDIO
    TITLE "1Q_t_1488-1500_71"
    INDEX 01 01:46:11
  TRACK 72 AUDIO
    TITLE "1Q_t_1488-1500_72"
    INDEX 01 01:50:54
  TRACK 73 AUDIO
    TITLE "1Q_t_1488-1500_73"
    INDEX 01 01:51:22
  TRACK 74 AUDIO
    TITLE "1Q_t_1488-1500_74"
    INDEX 01 01:52:29
  TRACK 75 AUDIO
    TITLE "1Q_t_1488-1500_75"
    INDEX 01 01:52:72
  TRACK 76 AUDIO
    TITLE "1Q_t_1488-1500_76"
    INDEX 01 01:54:14
  TRACK 77 AUDIO
    TITLE "1Q_t_1488-1500_77"
    INDEX 01 01:54:22
  TRACK 78 AUDIO
    TITLE "1Q_t_1488-1500_78"
    INDEX 01 01:55:33
  TRACK 79 AUDIO
    TITLE "1Q_t_1488-1500_79"
    INDEX 01 01:55:39
  TRACK 80 AUDIO
    TITLE "1Q_t_1488-1500_80"
    INDEX 01 02:00:07
